<?xml version="1.0" encoding="UTF-8" standalone="no"?>
<!DOCTYPE svg PUBLIC "-//W3C//DTD SVG 1.1//EN"
 "http://www.w3.org/Graphics/SVG/1.1/DTD/svg11.dtd">
<!-- Generated by graphviz version 2.43.0 (0)
 -->
<!-- Title: G Pages: 1 -->
<svg width="594pt" height="716pt"
 viewBox="0.00 0.00 594.43 716.36" xmlns="http://www.w3.org/2000/svg" xmlns:xlink="http://www.w3.org/1999/xlink">
<g id="graph0" class="graph" transform="scale(1 1) rotate(0) translate(4 712.36)">
<title>G</title><style>.edge>path:hover{stroke-width:8}</style>
<polygon fill="white" stroke="transparent" points="-4,4 -4,-712.36 590.43,-712.36 590.43,4 -4,4"/>
<!-- ardiem_container -->
<g id="node1" class="node">
<title>ardiem_container</title><style>.edge>path:hover{stroke-width:8}</style>
<ellipse fill="#ac4949" stroke="black" cx="60.04" cy="-618.36" rx="60.09" ry="18"/>
<text text-anchor="middle" x="60.04" y="-615.86" font-family="Helvetica,sans-Serif" font-size="10.00" fill="#ffffff">ardiem_container</text>
</g>
<!-- ardiem_container_ih5 -->
<g id="node2" class="node">
<title>ardiem_container_ih5</title><style>.edge>path:hover{stroke-width:8}</style>
<ellipse fill="#c04040" stroke="black" cx="148.04" cy="-238.4" rx="74.49" ry="21.43"/>
<text text-anchor="middle" x="148.04" y="-241.4" font-family="Helvetica,sans-Serif" font-size="10.00" fill="#ffffff">ardiem_container.</text>
<text text-anchor="middle" x="148.04" y="-230.4" font-family="Helvetica,sans-Serif" font-size="10.00" fill="#ffffff">ih5</text>
</g>
<!-- ardiem_container_metadata_base -->
<g id="node5" class="node">
<title>ardiem_container_metadata_base</title><style>.edge>path:hover{stroke-width:8}</style>
<ellipse fill="#813737" stroke="black" cx="148.04" cy="-28.99" rx="74.49" ry="28.98"/>
<text text-anchor="middle" x="148.04" y="-37.49" font-family="Helvetica,sans-Serif" font-size="10.00" fill="#ffffff">ardiem_container.</text>
<text text-anchor="middle" x="148.04" y="-26.49" font-family="Helvetica,sans-Serif" font-size="10.00" fill="#ffffff">metadata.</text>
<text text-anchor="middle" x="148.04" y="-15.49" font-family="Helvetica,sans-Serif" font-size="10.00" fill="#ffffff">base</text>
</g>
<!-- ardiem_container_ih5&#45;&gt;ardiem_container_metadata_base -->
<g id="edge1" class="edge">
<title>ardiem_container_ih5&#45;&gt;ardiem_container_metadata_base</title><style>.edge>path:hover{stroke-width:8}</style>
<path fill="none" stroke="black" d="M145.07,-216.92C143.25,-199.62 142.26,-174.35 148.04,-153.2"/>
</g>
<!-- ardiem_container_packer -->
<g id="node7" class="node">
<title>ardiem_container_packer</title><style>.edge>path:hover{stroke-width:8}</style>
<ellipse fill="#9d4343" stroke="black" cx="250.04" cy="-152.2" rx="74.49" ry="21.43"/>
<text text-anchor="middle" x="250.04" y="-155.2" font-family="Helvetica,sans-Serif" font-size="10.00" fill="#ffffff">ardiem_container.</text>
<text text-anchor="middle" x="250.04" y="-144.2" font-family="Helvetica,sans-Serif" font-size="10.00" fill="#ffffff">packer</text>
</g>
<!-- ardiem_container_ih5&#45;&gt;ardiem_container_packer -->
<g id="edge2" class="edge">
<title>ardiem_container_ih5&#45;&gt;ardiem_container_packer</title><style>.edge>path:hover{stroke-width:8}</style>
<path fill="none" stroke="black" d="M171.44,-218.08C185.44,-206.53 203.4,-191.7 218.62,-179.14"/>
<polygon fill="#c04040" stroke="black" points="221.27,-181.49 226.75,-172.42 216.81,-176.09 221.27,-181.49"/>
</g>
<!-- ardiem_container_ih5_record -->
<g id="node3" class="node">
<title>ardiem_container_ih5_record</title><style>.edge>path:hover{stroke-width:8}</style>
<ellipse fill="#ac2b2b" stroke="black" cx="148.04" cy="-332.38" rx="74.49" ry="28.98"/>
<text text-anchor="middle" x="148.04" y="-340.88" font-family="Helvetica,sans-Serif" font-size="10.00" fill="#ffffff">ardiem_container.</text>
<text text-anchor="middle" x="148.04" y="-329.88" font-family="Helvetica,sans-Serif" font-size="10.00" fill="#ffffff">ih5.</text>
<text text-anchor="middle" x="148.04" y="-318.88" font-family="Helvetica,sans-Serif" font-size="10.00" fill="#ffffff">record</text>
</g>
<!-- ardiem_container_ih5_record&#45;&gt;ardiem_container_ih5 -->
<g id="edge3" class="edge">
<title>ardiem_container_ih5_record&#45;&gt;ardiem_container_ih5</title><style>.edge>path:hover{stroke-width:8}</style>
<path fill="none" stroke="black" d="M148.04,-303.29C148.04,-292.75 148.04,-280.72 148.04,-269.97"/>
<polygon fill="#ac2b2b" stroke="black" points="151.54,-269.74 148.04,-259.74 144.54,-269.74 151.54,-269.74"/>
</g>
<!-- ardiem_container_ih5_record&#45;&gt;ardiem_container_metadata_base -->
<g id="edge4" class="edge">
<title>ardiem_container_ih5_record&#45;&gt;ardiem_container_metadata_base</title><style>.edge>path:hover{stroke-width:8}</style>
<path fill="none" stroke="black" d="M98.18,-310.88C69.42,-295.42 40.03,-271.39 46.04,-239.4"/>
</g>
<!-- ardiem_container_ih5_record&#45;&gt;ardiem_container_packer -->
<g id="edge5" class="edge">
<title>ardiem_container_ih5_record&#45;&gt;ardiem_container_packer</title><style>.edge>path:hover{stroke-width:8}</style>
<path fill="none" stroke="black" d="M191.48,-308.84C215.63,-293.23 242.33,-269.79 250.04,-239.4"/>
<path fill="none" stroke="black" d="M250.04,-237.4C254.47,-219.97 254.64,-199.84 253.62,-183.63"/>
<polygon fill="#ac2b2b" stroke="black" points="257.11,-183.31 252.82,-173.62 250.13,-183.87 257.11,-183.31"/>
</g>
<!-- ardiem_container_metadata -->
<g id="node4" class="node">
<title>ardiem_container_metadata</title><style>.edge>path:hover{stroke-width:8}</style>
<ellipse fill="#ce3b3b" stroke="black" cx="298.04" cy="-463.37" rx="74.49" ry="21.43"/>
<text text-anchor="middle" x="298.04" y="-466.37" font-family="Helvetica,sans-Serif" font-size="10.00" fill="#ffffff">ardiem_container.</text>
<text text-anchor="middle" x="298.04" y="-455.37" font-family="Helvetica,sans-Serif" font-size="10.00" fill="#ffffff">metadata</text>
</g>
<!-- ardiem_container_metadata&#45;&gt;ardiem_container_ih5_record -->
<g id="edge6" class="edge">
<title>ardiem_container_metadata&#45;&gt;ardiem_container_ih5_record</title><style>.edge>path:hover{stroke-width:8}</style>
<path fill="none" stroke="black" d="M283.16,-442.45C273.7,-429.81 261.18,-413.11 250.04,-398.37"/>
<path fill="none" stroke="black" d="M250.04,-397.37C238.45,-382.04 222.03,-369.46 205.73,-359.64"/>
<polygon fill="#ce3b3b" stroke="black" points="207.14,-356.41 196.73,-354.47 203.66,-362.48 207.14,-356.41"/>
</g>
<!-- ardiem_container_metadata&#45;&gt;ardiem_container_packer -->
<g id="edge7" class="edge">
<title>ardiem_container_metadata&#45;&gt;ardiem_container_packer</title><style>.edge>path:hover{stroke-width:8}</style>
<path fill="none" stroke="black" d="M250.04,-397.37C228.88,-369.37 241.41,-273.43 250.04,-239.4"/>
</g>
<!-- ardiem_container_metadata_types -->
<g id="node6" class="node">
<title>ardiem_container_metadata_types</title><style>.edge>path:hover{stroke-width:8}</style>
<ellipse fill="#b83d3d" stroke="black" cx="78.04" cy="-463.37" rx="74.49" ry="28.98"/>
<text text-anchor="middle" x="78.04" y="-471.87" font-family="Helvetica,sans-Serif" font-size="10.00" fill="#ffffff">ardiem_container.</text>
<text text-anchor="middle" x="78.04" y="-460.87" font-family="Helvetica,sans-Serif" font-size="10.00" fill="#ffffff">metadata.</text>
<text text-anchor="middle" x="78.04" y="-449.87" font-family="Helvetica,sans-Serif" font-size="10.00" fill="#ffffff">types</text>
</g>
<!-- ardiem_container_metadata_types&#45;&gt;ardiem_container_ih5_record -->
<g id="edge8" class="edge">
<title>ardiem_container_metadata_types&#45;&gt;ardiem_container_ih5_record</title><style>.edge>path:hover{stroke-width:8}</style>
<path fill="none" stroke="black" d="M46.04,-397.37C48.06,-377.99 62.14,-364.23 79.23,-354.58"/>
<polygon fill="#b83d3d" stroke="black" points="81.08,-357.57 88.39,-349.9 77.89,-351.33 81.08,-357.57"/>
</g>
<!-- ardiem_container_metadata_types&#45;&gt;ardiem_container_metadata_base -->
<g id="edge9" class="edge">
<title>ardiem_container_metadata_types&#45;&gt;ardiem_container_metadata_base</title><style>.edge>path:hover{stroke-width:8}</style>
<path fill="none" stroke="black" d="M56.37,-435.38C49.84,-424.44 44.7,-411.35 46.04,-398.37"/>
<path fill="none" stroke="black" d="M46.04,-397.37C53.3,-327.54 33.06,-308.4 46.04,-239.4"/>
<path fill="none" stroke="black" d="M46.04,-237.4C54.39,-193.02 146.69,-158.14 148.04,-153.2"/>
<path fill="none" stroke="black" d="M148.04,-151.2C154.64,-127.1 161.83,-115.82 148.04,-94.98"/>
<path fill="none" stroke="black" d="M148.04,-93.98C143.05,-86.44 141.24,-77.23 141.08,-68.17"/>
<polygon fill="#b83d3d" stroke="black" points="144.58,-68.25 141.52,-58.11 137.58,-67.94 144.58,-68.25"/>
</g>
<!-- ardiem_container_packer&#45;&gt;ardiem_container_metadata_base -->
<g id="edge10" class="edge">
<title>ardiem_container_packer&#45;&gt;ardiem_container_metadata_base</title><style>.edge>path:hover{stroke-width:8}</style>
<path fill="none" stroke="black" d="M201.93,-136.01C182.01,-127.22 160.66,-114.03 148.04,-94.98"/>
</g>
<!-- ardiem_container_packer_util -->
<g id="node8" class="node">
<title>ardiem_container_packer_util</title><style>.edge>path:hover{stroke-width:8}</style>
<ellipse fill="#c24747" stroke="black" cx="352.04" cy="-238.4" rx="74.49" ry="28.98"/>
<text text-anchor="middle" x="352.04" y="-246.9" font-family="Helvetica,sans-Serif" font-size="10.00" fill="#ffffff">ardiem_container.</text>
<text text-anchor="middle" x="352.04" y="-235.9" font-family="Helvetica,sans-Serif" font-size="10.00" fill="#ffffff">packer.</text>
<text text-anchor="middle" x="352.04" y="-224.9" font-family="Helvetica,sans-Serif" font-size="10.00" fill="#ffffff">util</text>
</g>
<!-- ardiem_container_packer_util&#45;&gt;ardiem_container_metadata_base -->
<g id="edge11" class="edge">
<title>ardiem_container_packer_util&#45;&gt;ardiem_container_metadata_base</title><style>.edge>path:hover{stroke-width:8}</style>
<path fill="none" stroke="black" d="M405.38,-218.11C439.52,-202.71 473.98,-179.43 454.04,-153.2"/>
<path fill="none" stroke="black" d="M454.04,-151.2C412.22,-96.15 186.21,-152.63 148.04,-94.98"/>
</g>
<!-- ardiem_container_packer_util&#45;&gt;ardiem_container_packer -->
<g id="edge12" class="edge">
<title>ardiem_container_packer_util&#45;&gt;ardiem_container_packer</title><style>.edge>path:hover{stroke-width:8}</style>
<path fill="none" stroke="black" d="M321.16,-211.91C308.56,-201.5 294.01,-189.49 281.36,-179.05"/>
<polygon fill="#c24747" stroke="black" points="283.31,-176.12 273.37,-172.45 278.85,-181.51 283.31,-176.12"/>
</g>
<!-- h5py -->
<g id="node9" class="node">
<title>h5py</title><style>.edge>path:hover{stroke-width:8}</style>
<ellipse fill="#cccc33" stroke="black" cx="251.04" cy="-546.36" rx="27" ry="18"/>
<text text-anchor="middle" x="251.04" y="-543.86" font-family="Helvetica,sans-Serif" font-size="10.00" fill="#000000">h5py</text>
</g>
<!-- h5py&#45;&gt;ardiem_container_ih5_record -->
<g id="edge13" class="edge">
<title>h5py&#45;&gt;ardiem_container_ih5_record</title><style>.edge>path:hover{stroke-width:8}</style>
<path fill="none" stroke="black" d="M234.62,-531.75C218.76,-517.01 196.98,-491.88 196.04,-464.37"/>
</g>
<!-- h5py&#45;&gt;ardiem_container_metadata_base -->
<g id="edge14" class="edge">
<title>h5py&#45;&gt;ardiem_container_metadata_base</title><style>.edge>path:hover{stroke-width:8}</style>
<path fill="none" stroke="black" d="M276.29,-539.75C304.28,-532.55 349.6,-517.82 381.04,-492.36 392.73,-482.89 393.32,-477.81 400.04,-464.37"/>
<path fill="none" stroke="black" d="M400.04,-462.37C431.24,-399.99 496.24,-208.73 454.04,-153.2"/>
</g>
<!-- pydantic -->
<g id="node10" class="node">
<title>pydantic</title><style>.edge>path:hover{stroke-width:8}</style>
<ellipse fill="#3bce3b" stroke="black" cx="400.04" cy="-690.36" rx="34.96" ry="18"/>
<text text-anchor="middle" x="400.04" y="-687.86" font-family="Helvetica,sans-Serif" font-size="10.00" fill="#000000">pydantic</text>
</g>
<!-- pydantic&#45;&gt;ardiem_container_ih5_record -->
<g id="edge15" class="edge">
<title>pydantic&#45;&gt;ardiem_container_ih5_record</title><style>.edge>path:hover{stroke-width:8}</style>
<path fill="none" stroke="black" d="M196.04,-545.36C167.3,-523.69 201.04,-500.01 196.04,-464.37"/>
</g>
<!-- pydantic&#45;&gt;ardiem_container_metadata_base -->
<g id="edge16" class="edge">
<title>pydantic&#45;&gt;ardiem_container_metadata_base</title><style>.edge>path:hover{stroke-width:8}</style>
<path fill="none" stroke="black" d="M400.04,-617.36C368.76,-556.98 364.23,-522.17 400.04,-464.37"/>
</g>
<!-- pydantic&#45;&gt;ardiem_container_metadata_types -->
<g id="edge17" class="edge">
<title>pydantic&#45;&gt;ardiem_container_metadata_types</title><style>.edge>path:hover{stroke-width:8}</style>
<path fill="none" stroke="black" d="M404.25,-672.21C406.95,-657.36 408.54,-635.76 400.04,-619.36"/>
<path fill="none" stroke="black" d="M400.04,-617.36C360.69,-541.42 289.92,-605.7 215.04,-564.36 205.12,-558.88 205.09,-554.18 196.04,-547.36"/>
<path fill="none" stroke="black" d="M196.04,-545.36C172.66,-527.73 145.8,-509.16 123.62,-494.26"/>
<polygon fill="#3bce3b" stroke="black" points="125.31,-491.18 115.05,-488.54 121.42,-497 125.31,-491.18"/>
</g>
<!-- pydantic_yaml -->
<g id="node11" class="node">
<title>pydantic_yaml</title><style>.edge>path:hover{stroke-width:8}</style>
<ellipse fill="#53b6b6" stroke="black" cx="534.04" cy="-238.4" rx="52.28" ry="18"/>
<text text-anchor="middle" x="534.04" y="-235.9" font-family="Helvetica,sans-Serif" font-size="10.00" fill="#000000">pydantic_yaml</text>
</g>
<!-- pydantic_yaml&#45;&gt;ardiem_container_metadata_base -->
<g id="edge18" class="edge">
<title>pydantic_yaml&#45;&gt;ardiem_container_metadata_base</title><style>.edge>path:hover{stroke-width:8}</style>
<path fill="none" stroke="black" d="M516.65,-221.29C499.6,-205.02 473.44,-178.72 454.04,-153.2"/>
</g>
<!-- toml -->
<g id="node12" class="node">
<title>toml</title><style>.edge>path:hover{stroke-width:8}</style>
<ellipse fill="#4040c0" stroke="black" cx="51.04" cy="-690.36" rx="27" ry="18"/>
<text text-anchor="middle" x="51.04" y="-687.86" font-family="Helvetica,sans-Serif" font-size="10.00" fill="#ffffff">toml</text>
</g>
<!-- toml&#45;&gt;ardiem_container -->
<g id="edge19" class="edge">
<title>toml&#45;&gt;ardiem_container</title><style>.edge>path:hover{stroke-width:8}</style>
<path fill="none" stroke="black" d="M53.22,-672.41C54.21,-664.7 55.41,-655.38 56.53,-646.72"/>
<polygon fill="#4040c0" stroke="black" points="60.02,-647 57.82,-636.63 53.08,-646.1 60.02,-647"/>
</g>
<!-- typing_extensions -->
<g id="node13" class="node">
<title>typing_extensions</title><style>.edge>path:hover{stroke-width:8}</style>
<ellipse fill="#ce3bce" stroke="black" cx="158.04" cy="-690.36" rx="62.3" ry="18"/>
<text text-anchor="middle" x="158.04" y="-687.86" font-family="Helvetica,sans-Serif" font-size="10.00" fill="#ffffff">typing_extensions</text>
</g>
<!-- typing_extensions&#45;&gt;ardiem_container -->
<g id="edge20" class="edge">
<title>typing_extensions&#45;&gt;ardiem_container</title><style>.edge>path:hover{stroke-width:8}</style>
<path fill="none" stroke="black" d="M135.81,-673.47C122.4,-663.9 105.14,-651.57 90.48,-641.09"/>
<polygon fill="#ce3bce" stroke="black" points="92.37,-638.14 82.19,-635.18 88.3,-643.84 92.37,-638.14"/>
</g>
<!-- typing_extensions&#45;&gt;ardiem_container_ih5_record -->
<g id="edge21" class="edge">
<title>typing_extensions&#45;&gt;ardiem_container_ih5_record</title><style>.edge>path:hover{stroke-width:8}</style>
<path fill="none" stroke="black" d="M158.04,-545.36C152.04,-506.05 197.4,-504.1 196.04,-464.37"/>
<path fill="none" stroke="black" d="M196.04,-462.37C194.93,-429.76 181.35,-395.24 168.91,-370.12"/>
<polygon fill="#ce3bce" stroke="black" points="171.91,-368.29 164.23,-360.98 165.68,-371.48 171.91,-368.29"/>
</g>
<!-- typing_extensions&#45;&gt;ardiem_container_metadata_types -->
<g id="edge22" class="edge">
<title>typing_extensions&#45;&gt;ardiem_container_metadata_types</title><style>.edge>path:hover{stroke-width:8}</style>
<path fill="none" stroke="black" d="M159.4,-672.22C161.22,-645.45 163.62,-592.13 158.04,-547.36"/>
<path fill="none" stroke="black" d="M158.04,-545.36C154.94,-525.06 141.18,-507.9 125.93,-494.67"/>
<polygon fill="#ce3bce" stroke="black" points="127.83,-491.71 117.86,-488.12 123.41,-497.14 127.83,-491.71"/>
</g>
</g>
</svg>
